{"title":"Clash.of.the.Titans.2010.1080p.BluRay.DTS.x264-LTT","uid":5683319,"size":6781294591,"categoryP":"video","categoryS":"hd___movies","magnet":"?xt=urn:btih:b9b561e969f78611fd2b15dfa1f060433b39a65a&amp;dn=Clash.of.the.Titans.2010.1080p.BluRay.DTS.x264-LTT&amp;tr=udp%3A%2F%2Ftracker.openbittorrent.com%3A80&amp;tr=udp%3A%2F%2Fopen.demonii.com%3A1337&amp;tr=udp%3A%2F%2Ftracker.coppersurfer.tk%3A6969&amp;tr=udp%3A%2F%2Fexodus.desync.com%3A6969","seeders":0,"leechers":0,"uploader":"kidgid7","files":2,"time":1278880050,"description":"ClashTitans.1080p.DTS.x264.mkv\n******************************\n\nTiTLE......  Clash of the Titans\nYEAR.......  2010\nGENRE......  Action | Adventure | Drama | Fantasy \niMDB RATE..  User Rating: 6.0/10 (30,468 votes)\niMDB URL... &lt;a href=&quot; http://www.imdb.com/title/tt0800320/&quot; rel=&quot;nofollow&quot; target=&quot;_NEW&quot;&gt; http://www.imdb.com/title/tt0800320/&lt;/a&gt;\n*************************************************\n\nVideo\nDuration                         : 1h 46mn\nOverall bit rate                 : 8 520 Kbps\nWidth                            : 1 920 pixels\nHeight                           : 816 pixels\nDisplay aspect ratio             : 2.35:1\nFrame rate                       : 23.976 fps\nStream size                      : 5.07 GiB (80%)\n\nAudio\nFormat                           : DTS\nFormat/Info                      : Digital Theater Systems\nBit rate                         : 1 510 Kbps\nChannel(s)                       : 6 channels\nChannel positions                : Front: L C R, Surround: L R, LFE\nSampling rate                    : 48.0 KHz\nResolution                       : 24 bits\nStream size                      : 1.12 GiB (18%)\nLanguage                         : English\n\nSubtitles: Dutch, French (*.srt)\n********************************\n","torrent":{"xt":"urn:btih:b9b561e969f78611fd2b15dfa1f060433b39a65a","amp;dn":"Clash.of.the.Titans.2010.1080p.BluRay.DTS.x264-LTT","amp;tr":["udp%3A%2F%2Ftracker.openbittorrent.com%3A80","udp%3A%2F%2Fopen.demonii.com%3A1337","udp%3A%2F%2Ftracker.coppersurfer.tk%3A6969","udp%3A%2F%2Fexodus.desync.com%3A6969"],"infoHash":"b9b561e969f78611fd2b15dfa1f060433b39a65a","infoHashBuffer":{"type":"Buffer","data":[185,181,97,233,105,247,134,17,253,43,21,223,161,240,96,67,59,57,166,90]},"announce":[],"urlList":[]}}